# xmcd
#
# Track frame offsets: 
#        150
#        14740
#        40480
#        58950
#        80775
#        102525
#        123120
#        143785
#        168610
#        191600
#        208350
#        223925
#
# Disc length: 3208 seconds
#
# Revision: 2
# Processed by: cddbd v1.5.2PL0 Copyright (c) Steve Scherf et al.
# Submitted via: ExactAudioCopy v0.99pb3
#
DISCID=c60c860c
DTITLE=Lil Ed Williams and Willie Kent - Who's Been Talking
DYEAR=1998
DGENRE=Blues
TTITLE0=Who's Been Talking
TTITLE1=Someday
TTITLE2=Bobby's Rock
TTITLE3=As The Years Go Passing By
TTITLE4=My Bleeding Heart
TTITLE5=The Ghetto
TTITLE6=Newspaper Blues
TTITLE7=Going Shopping
TTITLE8=I Wanna Get Married
TTITLE9=Your Love Is Strong
TTITLE10=My Life, My Love
TTITLE11=Bird Nest On The Ground
EXTD=
EXTT0=
EXTT1=
EXTT2=
EXTT3=
EXTT4=
EXTT5=
EXTT6=
EXTT7=
EXTT8=
EXTT9=
EXTT10=
EXTT11=
PLAYORDER=
